<svg width="46" height="46" viewBox="0 0 46 46" fill="none" xmlns="http://www.w3.org/2000/svg">
<path d="M41.8443 26.8826C43.8781 27.3016 45.8995 25.988 45.9819 23.9131C46.1431 19.8547 45.2271 15.8017 43.2951 12.1784C40.7698 7.44234 36.6677 3.73861 31.6992 1.70858C26.7306 -0.321438 21.2086 -0.549908 16.0894 1.06274C12.1729 2.29651 8.68082 4.54847 5.95398 7.55865C4.55987 9.09763 5.08307 11.4509 6.82843 12.5759C8.57379 13.701 10.8759 13.1533 12.3877 11.7298C14.0746 10.1415 16.1085 8.94082 18.3488 8.23509C21.7943 7.14969 25.5109 7.30346 28.855 8.66977C32.1991 10.0361 34.96 12.5289 36.6597 15.7165C37.7648 17.7891 38.376 20.0705 38.468 22.3856C38.5505 24.4605 39.8105 26.4635 41.8443 26.8826Z" fill="#13CEBB"/>
<g filter="url(#filter0_d_22_2)">
<path d="M13.7743 6.11607C12.7785 4.29383 10.4694 3.6016 8.83353 4.88062C6.12525 6.99809 3.91296 9.70627 2.37687 12.8173C0.283005 17.0581 -0.452622 21.8412 0.270206 26.5152C0.993034 31.1891 3.13917 35.5266 6.41625 38.9367C8.82036 41.4384 11.7474 43.3518 14.9688 44.5523C16.9146 45.2774 18.9067 43.9199 19.3055 41.8821C19.7042 39.8442 18.3431 37.9085 16.4609 37.0313C14.7389 36.2287 13.1695 35.1115 11.8383 33.7262C9.63263 31.431 8.18817 28.5117 7.70167 25.3659C7.21517 22.2201 7.71028 19.0008 9.11957 16.1465C9.97014 14.4239 11.1287 12.8847 12.5279 11.5995C14.0571 10.1948 14.77 7.93831 13.7743 6.11607Z" fill="#F6931D"/>
</g>
<path d="M39.0964 33.5397C40.8337 34.6773 41.34 37.0341 39.9349 38.563C38.6341 39.9786 37.1575 41.2291 35.5375 42.2824C32.8635 44.0211 29.857 45.1846 26.7092 45.6989C23.5613 46.2133 20.3409 46.0674 17.2525 45.2703C15.3815 44.7874 13.5837 44.072 11.8999 43.1442C10.0812 42.142 9.81099 39.7466 11.0958 38.1153C12.3806 36.4839 14.7357 36.2533 16.6281 37.108C17.4338 37.4719 18.2712 37.767 19.1316 37.9891C21.2103 38.5255 23.3778 38.6238 25.4965 38.2776C27.6151 37.9314 29.6386 37.1483 31.4384 35.9781C32.1834 35.4937 32.8833 34.9473 33.5312 34.3459C35.0532 32.9332 37.3592 32.4022 39.0964 33.5397Z" fill="#27A9E0"/>
<path d="M31.3895 14.8715C31.6432 14.0936 30.9064 13.3569 30.1286 13.6107L11.2809 19.7608C10.3285 20.0716 10.374 21.4342 11.345 21.6808L20.3179 23.959C20.6733 24.0493 20.9508 24.3267 21.0411 24.682L23.3209 33.6555C23.5676 34.6265 24.9301 34.6718 25.2408 33.7194L31.3895 14.8715Z" fill="white"/>
<defs>
<filter id="filter0_d_22_2" x="-2.28882e-05" y="4.22601" width="19.3752" height="40.5237" filterUnits="userSpaceOnUse" color-interpolation-filters="sRGB">
<feFlood flood-opacity="0" result="BackgroundImageFix"/>
<feColorMatrix in="SourceAlpha" type="matrix" values="0 0 0 0 0 0 0 0 0 0 0 0 0 0 0 0 0 0 127 0" result="hardAlpha"/>
<feOffset/>
<feColorMatrix type="matrix" values="0 0 0 0 0 0 0 0 0 0 0 0 0 0 0 0 0 0 0.25 0"/>
<feBlend mode="normal" in2="BackgroundImageFix" result="effect1_dropShadow_22_2"/>
<feBlend mode="normal" in="SourceGraphic" in2="effect1_dropShadow_22_2" result="shape"/>
</filter>
</defs>
</svg>
