<svg width="46" height="46" viewBox="0 0 46 46" fill="none" xmlns="http://www.w3.org/2000/svg">
<path d="M46 23.0004C46 35.6833 35.6829 46.0004 23 46.0004C20.9939 46.0004 18.9906 45.7363 17.0491 45.2193L18.9372 38.1614C20.2634 38.5155 21.6289 38.6953 23 38.6953C31.6538 38.6953 38.6949 31.6542 38.6949 23.0004C38.6949 22.7616 38.6893 22.5228 38.6752 22.284C39.535 22.888 40.5802 23.2392 41.6872 23.2392C42.1423 23.2392 42.6003 23.1802 43.0442 23.0594C44.2159 22.7476 45.2189 22.0564 45.9214 21.0898C45.9747 21.7248 46 22.3626 46 23.0004Z" fill="#26A7DF"/>
<path d="M42.6339 21.5221C42.3164 21.6064 41.9989 21.6457 41.6871 21.6457C40.0743 21.6457 38.5964 20.5696 38.1609 18.9344C36.3318 12.0872 30.0971 7.30516 22.9999 7.30516C19.957 7.30516 17.0462 8.16492 14.5456 9.77205C14.5596 9.62314 14.5653 9.47141 14.5653 9.31969C14.5653 7.91766 14.0202 6.59993 13.0284 5.61092C12.1714 4.75397 11.07 4.22856 9.88153 4.10494C13.7027 1.43574 18.2431 0 22.9999 0C33.3985 0 42.5356 7.01014 45.2188 17.0491C45.7386 18.999 44.581 20.9995 42.6339 21.5221Z" fill="#40BEB2"/>
<path d="M12.9245 40.3356C12.6042 41.5353 12.7278 42.7519 13.197 43.8083C5.26252 40.0715 0 32.0077 0 22.9999C0 16.8579 2.39384 11.0812 6.7376 6.73748C8.16492 5.31016 10.4773 5.31016 11.9018 6.73748C13.3291 8.16198 13.3291 10.4772 11.9018 11.9017C8.93758 14.8659 7.30516 18.8078 7.30516 22.9999C7.30516 28.9452 10.6627 34.2835 15.7791 36.9359C14.4052 37.5765 13.3347 38.7987 12.9245 40.3356Z" fill="#F59220"/>
<path d="M23 45.9996C20.9939 45.9996 18.9906 45.7355 17.0491 45.2186C15.0992 44.6988 13.9416 42.6955 14.4642 40.7455C14.984 38.7956 16.9873 37.6409 18.9372 38.1606C20.2634 38.5147 21.6317 38.6945 23.0028 38.6945C25.0202 38.6945 26.6554 40.3297 26.6554 42.3471C26.6554 44.3644 25.0174 45.9996 23 45.9996Z" fill="#26A7DF"/>
<path d="M31.4915 15.1233C31.7471 14.3395 31.0031 13.5954 30.2193 13.851L11.2094 20.0532C10.2496 20.3656 10.295 21.7401 11.2748 21.99L20.3253 24.2874C20.6831 24.3783 20.9643 24.6594 21.0551 25.0172L23.3554 34.0678C23.6053 35.0475 24.9769 35.093 25.2922 34.1331L31.4915 15.1233Z" fill="#070707"/>
<path d="M31.4915 15.1233C31.7471 14.3395 31.0031 13.5954 30.2193 13.851L11.2094 20.0532C10.2496 20.3656 10.295 21.7401 11.2748 21.99L20.3253 24.2874C20.6831 24.3783 20.9643 24.6594 21.0551 25.0172L23.3554 34.0678C23.6053 35.0475 24.9769 35.093 25.2922 34.1331L31.4915 15.1233Z" fill="black"/>
</svg>
