<svg width="46" height="49" viewBox="0 0 46 49" fill="none" xmlns="http://www.w3.org/2000/svg">
                    <path
                        d="M46 23C46 35.6829 35.6829 46 23 46C20.9939 46 18.9906 45.7359 17.0491 45.2189L18.9372 38.161C20.2634 38.515 21.6289 38.6948 23 38.6948C31.6538 38.6948 38.6949 31.6538 38.6949 23C38.6949 22.7612 38.6893 22.5224 38.6752 22.2835C39.535 22.8876 40.5802 23.2388 41.6872 23.2388C42.1423 23.2388 42.6003 23.1798 43.0442 23.059C44.2159 22.7471 45.2189 22.0559 45.9214 21.0894C45.9747 21.7244 46 22.3622 46 23Z"
                        fill="#26A7DF" />
                    <path
                        d="M42.6339 21.5221C42.3164 21.6064 41.9989 21.6457 41.6871 21.6457C40.0743 21.6457 38.5964 20.5696 38.1609 18.9344C36.3318 12.0872 30.0971 7.30516 22.9999 7.30516C19.957 7.30516 17.0462 8.16492 14.5456 9.77205C14.5596 9.62314 14.5653 9.47141 14.5653 9.31969C14.5653 7.91766 14.0202 6.59993 13.0284 5.61092C12.1714 4.75397 11.07 4.22856 9.88153 4.10494C13.7027 1.43574 18.2431 0 22.9999 0C33.3985 0 42.5356 7.01014 45.2188 17.0491C45.7386 18.999 44.581 20.9995 42.6339 21.5221Z"
                        fill="#40BEB2" />
                    <path
                        d="M12.9245 40.3357C12.6042 41.5354 12.7278 42.752 13.197 43.8085C5.26252 40.0716 0 32.0078 0 23C0 16.8581 2.39384 11.0814 6.7376 6.7376C8.16492 5.31029 10.4773 5.31029 11.9018 6.7376C13.3291 8.16211 13.3291 10.4773 11.9018 11.9018C8.93758 14.866 7.30516 18.808 7.30516 23C7.30516 28.9453 10.6627 34.2837 15.7791 36.936C14.4052 37.5766 13.3347 38.7988 12.9245 40.3357Z"
                        fill="#F59220" />
                    <path
                        d="M23 46C20.9939 46 18.9906 45.7359 17.0491 45.2189C15.0992 44.6991 13.9416 42.6958 14.4642 40.7459C14.984 38.796 16.9873 37.6412 18.9372 38.161C20.2634 38.515 21.6317 38.6949 23.0028 38.6949C25.0202 38.6949 26.6554 40.3301 26.6554 42.3474C26.6554 44.3648 25.0174 46 23 46Z"
                        fill="#26A7DF" />
                    <path
                        d="M31.4916 15.1235C31.7472 14.3397 31.0032 13.5956 30.2194 13.8512L11.2096 20.0534C10.2497 20.3658 10.2951 21.7403 11.2749 21.9902L20.3254 24.2876C20.6832 24.3785 20.9644 24.6596 21.0553 25.0174L23.3555 34.068C23.6054 35.0477 24.9771 35.0932 25.2923 34.1333L31.4916 15.1235Z"
                        fill="black"/>
                    <rect x="7.75" y="37.75" width="30.5" height="10.5" rx="5.25" stroke="white" fill="black"
                        stroke-width="0.5" />
                    <path
                        d="M12.5057 46V40.1818H14.8352C15.2633 40.1818 15.6203 40.2453 15.9062 40.3722C16.1922 40.4991 16.4072 40.6752 16.5511 40.9006C16.6951 41.1241 16.767 41.3816 16.767 41.6733C16.767 41.9006 16.7216 42.1004 16.6307 42.2727C16.5398 42.4432 16.4148 42.5833 16.2557 42.6932C16.0985 42.8011 15.9186 42.8778 15.7159 42.9233V42.9801C15.9375 42.9896 16.1449 43.0521 16.3381 43.1676C16.5331 43.2831 16.6913 43.4451 16.8125 43.6534C16.9337 43.8598 16.9943 44.1061 16.9943 44.392C16.9943 44.7008 16.9176 44.9763 16.7642 45.2188C16.6127 45.4593 16.3883 45.6496 16.0909 45.7898C15.7936 45.9299 15.4271 46 14.9915 46H12.5057ZM13.7358 44.9943H14.7386C15.0814 44.9943 15.3314 44.929 15.4886 44.7983C15.6458 44.6657 15.7244 44.4896 15.7244 44.2699C15.7244 44.1089 15.6856 43.9669 15.608 43.8438C15.5303 43.7206 15.4195 43.6241 15.2756 43.554C15.1335 43.4839 14.964 43.4489 14.767 43.4489H13.7358V44.9943ZM13.7358 42.6165H14.6477C14.8163 42.6165 14.9659 42.5871 15.0966 42.5284C15.2292 42.4678 15.3333 42.3826 15.4091 42.2727C15.4867 42.1629 15.5256 42.0312 15.5256 41.8778C15.5256 41.6676 15.4508 41.4981 15.3011 41.3693C15.1534 41.2405 14.9432 41.1761 14.6705 41.1761H13.7358V42.6165ZM17.7947 46V40.1818H21.7152V41.196H19.0249V42.5824H21.5135V43.5966H19.0249V44.9858H21.7266V46H17.7947ZM22.4716 41.196V40.1818H27.25V41.196H25.4688V46H24.2528V41.196H22.4716ZM28.3288 46H27.0107L29.0192 40.1818H30.6044L32.6101 46H31.2919L29.8345 41.5114H29.7891L28.3288 46ZM28.2464 43.7131H31.3601V44.6733H28.2464V43.7131Z"
                        fill="white"/>
                </svg>